<svg id="visual" viewBox="0 0 900 600" width="900" height="600" xmlns="http://www.w3.org/2000/svg" xmlns:xlink="http://www.w3.org/1999/xlink" version="1.1"><path d="M0 67L13.7 80C27.3 93 54.7 119 82 134C109.3 149 136.7 153 163.8 160C191 167 218 177 245.2 178C272.3 179 299.7 171 327 156C354.3 141 381.7 119 409 118C436.3 117 463.7 137 491 147C518.3 157 545.7 157 573 151C600.3 145 627.7 133 654.8 157C682 181 709 241 736.2 246C763.3 251 790.7 201 818 182C845.3 163 872.7 175 886.3 181L900 187L900 0L886.3 0C872.7 0 845.3 0 818 0C790.7 0 763.3 0 736.2 0C709 0 682 0 654.8 0C627.7 0 600.3 0 573 0C545.7 0 518.3 0 491 0C463.7 0 436.3 0 409 0C381.7 0 354.3 0 327 0C299.7 0 272.3 0 245.2 0C218 0 191 0 163.8 0C136.7 0 109.3 0 82 0C54.7 0 27.3 0 13.7 0L0 0Z" fill="#6198ff"></path><path d="M0 205L13.7 210C27.3 215 54.7 225 82 234C109.3 243 136.7 251 163.8 266C191 281 218 303 245.2 308C272.3 313 299.7 301 327 287C354.3 273 381.7 257 409 258C436.3 259 463.7 277 491 285C518.3 293 545.7 291 573 285C600.3 279 627.7 269 654.8 285C682 301 709 343 736.2 336C763.3 329 790.7 273 818 249C845.3 225 872.7 233 886.3 237L900 241L900 185L886.3 179C872.7 173 845.3 161 818 180C790.7 199 763.3 249 736.2 244C709 239 682 179 654.8 155C627.7 131 600.3 143 573 149C545.7 155 518.3 155 491 145C463.7 135 436.3 115 409 116C381.7 117 354.3 139 327 154C299.7 169 272.3 177 245.2 176C218 175 191 165 163.8 158C136.7 151 109.3 147 82 132C54.7 117 27.3 91 13.7 78L0 65Z" fill="#3c80ff"></path><path d="M0 283L13.7 294C27.3 305 54.7 327 82 338C109.3 349 136.7 349 163.8 353C191 357 218 365 245.2 373C272.3 381 299.7 389 327 388C354.3 387 381.7 377 409 375C436.3 373 463.7 379 491 383C518.3 387 545.7 389 573 376C600.3 363 627.7 335 654.8 341C682 347 709 387 736.2 391C763.3 395 790.7 363 818 351C845.3 339 872.7 347 886.3 351L900 355L900 239L886.3 235C872.7 231 845.3 223 818 247C790.7 271 763.3 327 736.2 334C709 341 682 299 654.8 283C627.7 267 600.3 277 573 283C545.7 289 518.3 291 491 283C463.7 275 436.3 257 409 256C381.7 255 354.3 271 327 285C299.7 299 272.3 311 245.2 306C218 301 191 279 163.8 264C136.7 249 109.3 241 82 232C54.7 223 27.3 213 13.7 208L0 203Z" fill="#0066ff"></path><path d="M0 499L13.7 504C27.3 509 54.7 519 82 524C109.3 529 136.7 529 163.8 528C191 527 218 525 245.2 531C272.3 537 299.7 551 327 552C354.3 553 381.7 541 409 533C436.3 525 463.7 521 491 526C518.3 531 545.7 545 573 542C600.3 539 627.7 519 654.8 515C682 511 709 523 736.2 533C763.3 543 790.7 551 818 546C845.3 541 872.7 523 886.3 514L900 505L900 353L886.3 349C872.7 345 845.3 337 818 349C790.7 361 763.3 393 736.2 389C709 385 682 345 654.8 339C627.7 333 600.3 361 573 374C545.7 387 518.3 385 491 381C463.7 377 436.3 371 409 373C381.7 375 354.3 385 327 386C299.7 387 272.3 379 245.2 371C218 363 191 355 163.8 351C136.7 347 109.3 347 82 336C54.7 325 27.3 303 13.7 292L0 281Z" fill="#0059dd"></path><path d="M0 601L13.7 601C27.3 601 54.7 601 82 601C109.3 601 136.7 601 163.8 601C191 601 218 601 245.2 601C272.3 601 299.7 601 327 601C354.3 601 381.7 601 409 601C436.3 601 463.7 601 491 601C518.3 601 545.7 601 573 601C600.3 601 627.7 601 654.8 601C682 601 709 601 736.2 601C763.3 601 790.7 601 818 601C845.3 601 872.7 601 886.3 601L900 601L900 503L886.3 512C872.7 521 845.3 539 818 544C790.7 549 763.3 541 736.2 531C709 521 682 509 654.8 513C627.7 517 600.3 537 573 540C545.7 543 518.3 529 491 524C463.7 519 436.3 523 409 531C381.7 539 354.3 551 327 550C299.7 549 272.3 535 245.2 529C218 523 191 525 163.8 526C136.7 527 109.3 527 82 522C54.7 517 27.3 507 13.7 502L0 497Z" fill="#004cbb"></path></svg>